<svg width="893" height="255" viewBox="0 0 893 255" fill="none" xmlns="http://www.w3.org/2000/svg">
<path d="M97.8048 24.9554C101.61 24.9819 105.412 25.0083 109.043 25.0083H145.978C149.608 25.0083 153.411 24.9819 157.216 24.9554C167.459 24.8841 177.718 24.8127 184.661 25.2573C209.937 26.876 227.369 42.1909 229.61 68.2139C230.141 77.565 230.128 88.83 230.113 102.115V102.119C230.111 104.399 230.108 106.739 230.108 109.138V146.074C230.108 148.473 230.111 150.813 230.113 153.093C230.128 166.38 230.141 177.646 229.61 186.998C227.369 213.021 209.937 228.336 184.661 229.955C177.718 230.399 167.459 230.328 157.216 230.257C153.411 230.23 149.608 230.204 145.978 230.204H109.043C105.412 230.204 101.61 230.23 97.8048 230.257C87.5612 230.328 77.3027 230.399 70.3593 229.955C45.0835 228.336 27.6518 213.021 25.4106 186.998C24.8792 177.647 24.8921 166.382 24.9072 153.097V153.093C24.9098 150.813 24.9125 148.473 24.9125 146.074V109.138C24.9125 106.739 24.9098 104.399 24.9072 102.119V102.115C24.8921 88.83 24.8792 77.565 25.4106 68.2139C27.6518 42.1909 45.0835 26.876 70.3593 25.2573C77.3027 24.8127 87.5612 24.8841 97.8048 24.9554Z" fill="url(#paint0_linear_4009_26)"/>
<g filter="url(#filter0_dddddd_4009_26)">
<path d="M58.2715 98.1152C58.2715 92.889 62.5082 88.6523 67.7344 88.6523H133.975C147.178 88.6523 157.881 99.3555 157.881 112.559V156.636C157.881 161.862 153.644 166.099 148.418 166.099H82.1777C68.9747 166.099 58.2715 155.395 58.2715 142.192V98.1152Z" fill="url(#paint1_linear_4009_26)"/>
<path d="M67.7344 89.7729H133.975C146.559 89.7729 156.76 99.9744 156.76 112.559V156.636C156.76 161.243 153.025 164.978 148.418 164.978H82.1777C69.5936 164.978 59.3921 154.777 59.3921 142.192V98.1152C59.3921 93.5079 63.1271 89.7729 67.7344 89.7729Z" stroke="url(#paint2_linear_4009_26)" stroke-width="2.24121"/>
</g>
<g filter="url(#filter1_dddddd_4009_26)">
<path d="M163.857 116.072C163.857 112.851 165.243 109.785 167.662 107.658L186.64 90.9628C190.662 87.4248 196.978 90.2806 196.978 95.6371V159.304C196.978 164.61 190.765 167.484 186.721 164.048L169.3 149.247C165.847 146.313 163.857 142.011 163.857 137.481V116.072Z" fill="url(#paint3_linear_4009_26)"/>
<path d="M168.402 108.499L187.38 91.8042C190.678 88.903 195.857 91.2447 195.857 95.6371V159.304C195.857 163.655 190.762 166.011 187.447 163.194L170.026 148.393C166.824 145.672 164.978 141.683 164.978 137.481V116.072C164.978 113.173 166.225 110.414 168.402 108.499Z" stroke="url(#paint4_linear_4009_26)" stroke-width="2.24121"/>
</g>
<path d="M263.711 194V177.401L322.277 97.1163H263.77V73.4545H359.123V90.0531L300.558 170.338H359.065V194H263.711ZM376.943 194V73.4545H426.739C435.764 73.4545 443.553 75.083 450.106 78.3399C456.699 81.5576 461.78 86.1879 465.351 92.2309C468.922 98.2346 470.707 105.357 470.707 113.597C470.707 121.955 468.883 129.058 465.234 134.904C461.584 140.712 456.404 145.146 449.694 148.207C442.984 151.228 435.038 152.739 425.856 152.739H394.366V129.784H420.441C424.836 129.784 428.505 129.215 431.448 128.077C434.43 126.9 436.686 125.134 438.217 122.779C439.747 120.386 440.512 117.325 440.512 113.597C440.512 109.869 439.747 106.789 438.217 104.356C436.686 101.884 434.43 100.04 431.448 98.8232C428.466 97.5676 424.797 96.9397 420.441 96.9397H406.079V194H376.943ZM444.809 138.907L474.828 194H443.043L413.613 138.907H444.809ZM600.465 133.727C600.465 146.99 597.914 158.233 592.813 167.454C587.712 176.676 580.805 183.68 572.094 188.467C563.422 193.254 553.69 195.648 542.899 195.648C532.069 195.648 522.318 193.235 513.646 188.408C504.974 183.582 498.087 176.577 492.986 167.395C487.924 158.174 485.393 146.951 485.393 133.727C485.393 120.464 487.924 109.222 492.986 100C498.087 90.779 504.974 83.7747 513.646 78.9874C522.318 74.2001 532.069 71.8065 542.899 71.8065C553.69 71.8065 563.422 74.2001 572.094 78.9874C580.805 83.7747 587.712 90.779 592.813 100C597.914 109.222 600.465 120.464 600.465 133.727ZM570.681 133.727C570.681 125.879 569.563 119.248 567.326 113.833C565.129 108.417 561.95 104.317 557.791 101.531C553.671 98.7448 548.707 97.3517 542.899 97.3517C537.131 97.3517 532.167 98.7448 528.008 101.531C523.848 104.317 520.65 108.417 518.414 113.833C516.216 119.248 515.117 125.879 515.117 133.727C515.117 141.575 516.216 148.207 518.414 153.622C520.65 159.037 523.848 163.138 528.008 165.924C532.167 168.71 537.131 170.103 542.899 170.103C548.707 170.103 553.671 168.71 557.791 165.924C561.95 163.138 565.129 159.037 567.326 153.622C569.563 148.207 570.681 141.575 570.681 133.727ZM731.252 133.727C731.252 146.99 728.701 158.233 723.6 167.454C718.499 176.676 711.592 183.68 702.881 188.467C694.209 193.254 684.478 195.648 673.687 195.648C662.856 195.648 653.105 193.235 644.433 188.408C635.761 183.582 628.874 176.577 623.773 167.395C618.711 158.174 616.18 146.951 616.18 133.727C616.18 120.464 618.711 109.222 623.773 100C628.874 90.779 635.761 83.7747 644.433 78.9874C653.105 74.2001 662.856 71.8065 673.687 71.8065C684.478 71.8065 694.209 74.2001 702.881 78.9874C711.592 83.7747 718.499 90.779 723.6 100C728.701 109.222 731.252 120.464 731.252 133.727ZM701.468 133.727C701.468 125.879 700.35 119.248 698.113 113.833C695.916 108.417 692.738 104.317 688.578 101.531C684.458 98.7448 679.494 97.3517 673.687 97.3517C667.918 97.3517 662.954 98.7448 658.795 101.531C654.635 104.317 651.437 108.417 649.201 113.833C647.003 119.248 645.905 125.879 645.905 133.727C645.905 141.575 647.003 148.207 649.201 153.622C651.437 159.037 654.635 163.138 658.795 165.924C662.954 168.71 667.918 170.103 673.687 170.103C679.494 170.103 684.458 168.71 688.578 165.924C692.738 163.138 695.916 159.037 698.113 153.622C700.35 148.207 701.468 141.575 701.468 133.727ZM748.262 73.4545H784.343L814.951 148.089H816.363L846.971 73.4545H883.052V194H854.681V119.954H853.681L824.721 193.235H806.593L777.633 119.542H776.633V194H748.262V73.4545Z" fill="white"/>
<defs>
<filter id="filter0_dddddd_4009_26" x="40.3418" y="81.9287" width="135.469" height="113.306" filterUnits="userSpaceOnUse" color-interpolation-filters="sRGB">
<feFlood flood-opacity="0" result="BackgroundImageFix"/>
<feColorMatrix in="SourceAlpha" type="matrix" values="0 0 0 0 0 0 0 0 0 0 0 0 0 0 0 0 0 0 127 0" result="hardAlpha"/>
<feOffset dy="0.615013"/>
<feGaussianBlur stdDeviation="0.226553"/>
<feColorMatrix type="matrix" values="0 0 0 0 0.0509804 0 0 0 0 0.121569 0 0 0 0 0.396078 0 0 0 0.189957 0"/>
<feBlend mode="multiply" in2="BackgroundImageFix" result="effect1_dropShadow_4009_26"/>
<feColorMatrix in="SourceAlpha" type="matrix" values="0 0 0 0 0 0 0 0 0 0 0 0 0 0 0 0 0 0 127 0" result="hardAlpha"/>
<feOffset dy="1.20664"/>
<feGaussianBlur stdDeviation="0.503869"/>
<feColorMatrix type="matrix" values="0 0 0 0 0.0509804 0 0 0 0 0.121569 0 0 0 0 0.396078 0 0 0 0.368551 0"/>
<feBlend mode="multiply" in2="effect1_dropShadow_4009_26" result="effect2_dropShadow_4009_26"/>
<feColorMatrix in="SourceAlpha" type="matrix" values="0 0 0 0 0 0 0 0 0 0 0 0 0 0 0 0 0 0 127 0" result="hardAlpha"/>
<feOffset dy="1.8557"/>
<feGaussianBlur stdDeviation="0.862946"/>
<feColorMatrix type="matrix" values="0 0 0 0 0.0509804 0 0 0 0 0.121569 0 0 0 0 0.396078 0 0 0 0.3 0"/>
<feBlend mode="multiply" in2="effect2_dropShadow_4009_26" result="effect3_dropShadow_4009_26"/>
<feColorMatrix in="SourceAlpha" type="matrix" values="0 0 0 0 0 0 0 0 0 0 0 0 0 0 0 0 0 0 127 0" result="hardAlpha"/>
<feOffset dy="2.72289"/>
<feGaussianBlur stdDeviation="2.7405"/>
<feColorMatrix type="matrix" values="0 0 0 0 0.0509804 0 0 0 0 0.121569 0 0 0 0 0.396078 0 0 0 0.3 0"/>
<feBlend mode="multiply" in2="effect3_dropShadow_4009_26" result="effect4_dropShadow_4009_26"/>
<feColorMatrix in="SourceAlpha" type="matrix" values="0 0 0 0 0 0 0 0 0 0 0 0 0 0 0 0 0 0 127 0" result="hardAlpha"/>
<feOffset dy="4.23693"/>
<feGaussianBlur stdDeviation="5.09502"/>
<feColorMatrix type="matrix" values="0 0 0 0 0.0509804 0 0 0 0 0.121569 0 0 0 0 0.396078 0 0 0 0.29 0"/>
<feBlend mode="overlay" in2="effect4_dropShadow_4009_26" result="effect5_dropShadow_4009_26"/>
<feColorMatrix in="SourceAlpha" type="matrix" values="0 0 0 0 0 0 0 0 0 0 0 0 0 0 0 0 0 0 127 0" result="hardAlpha"/>
<feOffset dy="11.2061"/>
<feGaussianBlur stdDeviation="8.96484"/>
<feColorMatrix type="matrix" values="0 0 0 0 0.0509804 0 0 0 0 0.121569 0 0 0 0 0.396078 0 0 0 0.45 0"/>
<feBlend mode="multiply" in2="effect5_dropShadow_4009_26" result="effect6_dropShadow_4009_26"/>
<feBlend mode="normal" in="SourceGraphic" in2="effect6_dropShadow_4009_26" result="shape"/>
</filter>
<filter id="filter1_dddddd_4009_26" x="145.928" y="82.6758" width="68.9795" height="112.001" filterUnits="userSpaceOnUse" color-interpolation-filters="sRGB">
<feFlood flood-opacity="0" result="BackgroundImageFix"/>
<feColorMatrix in="SourceAlpha" type="matrix" values="0 0 0 0 0 0 0 0 0 0 0 0 0 0 0 0 0 0 127 0" result="hardAlpha"/>
<feOffset dy="0.615013"/>
<feGaussianBlur stdDeviation="0.226553"/>
<feColorMatrix type="matrix" values="0 0 0 0 0.0509804 0 0 0 0 0.121569 0 0 0 0 0.396078 0 0 0 0.189957 0"/>
<feBlend mode="multiply" in2="BackgroundImageFix" result="effect1_dropShadow_4009_26"/>
<feColorMatrix in="SourceAlpha" type="matrix" values="0 0 0 0 0 0 0 0 0 0 0 0 0 0 0 0 0 0 127 0" result="hardAlpha"/>
<feOffset dy="1.20664"/>
<feGaussianBlur stdDeviation="0.503869"/>
<feColorMatrix type="matrix" values="0 0 0 0 0.0509804 0 0 0 0 0.121569 0 0 0 0 0.396078 0 0 0 0.368551 0"/>
<feBlend mode="multiply" in2="effect1_dropShadow_4009_26" result="effect2_dropShadow_4009_26"/>
<feColorMatrix in="SourceAlpha" type="matrix" values="0 0 0 0 0 0 0 0 0 0 0 0 0 0 0 0 0 0 127 0" result="hardAlpha"/>
<feOffset dy="1.8557"/>
<feGaussianBlur stdDeviation="0.862946"/>
<feColorMatrix type="matrix" values="0 0 0 0 0.0509804 0 0 0 0 0.121569 0 0 0 0 0.396078 0 0 0 0.3 0"/>
<feBlend mode="multiply" in2="effect2_dropShadow_4009_26" result="effect3_dropShadow_4009_26"/>
<feColorMatrix in="SourceAlpha" type="matrix" values="0 0 0 0 0 0 0 0 0 0 0 0 0 0 0 0 0 0 127 0" result="hardAlpha"/>
<feOffset dy="2.72289"/>
<feGaussianBlur stdDeviation="2.7405"/>
<feColorMatrix type="matrix" values="0 0 0 0 0.0509804 0 0 0 0 0.121569 0 0 0 0 0.396078 0 0 0 0.3 0"/>
<feBlend mode="multiply" in2="effect3_dropShadow_4009_26" result="effect4_dropShadow_4009_26"/>
<feColorMatrix in="SourceAlpha" type="matrix" values="0 0 0 0 0 0 0 0 0 0 0 0 0 0 0 0 0 0 127 0" result="hardAlpha"/>
<feOffset dy="4.23693"/>
<feGaussianBlur stdDeviation="5.09502"/>
<feColorMatrix type="matrix" values="0 0 0 0 0.0509804 0 0 0 0 0.121569 0 0 0 0 0.396078 0 0 0 0.29 0"/>
<feBlend mode="overlay" in2="effect4_dropShadow_4009_26" result="effect5_dropShadow_4009_26"/>
<feColorMatrix in="SourceAlpha" type="matrix" values="0 0 0 0 0 0 0 0 0 0 0 0 0 0 0 0 0 0 127 0" result="hardAlpha"/>
<feOffset dy="11.2061"/>
<feGaussianBlur stdDeviation="8.96484"/>
<feColorMatrix type="matrix" values="0 0 0 0 0.0509804 0 0 0 0 0.121569 0 0 0 0 0.396078 0 0 0 0.45 0"/>
<feBlend mode="multiply" in2="effect5_dropShadow_4009_26" result="effect6_dropShadow_4009_26"/>
<feBlend mode="normal" in="SourceGraphic" in2="effect6_dropShadow_4009_26" result="shape"/>
</filter>
<linearGradient id="paint0_linear_4009_26" x1="127.51" y1="24.9023" x2="127.51" y2="230.31" gradientUnits="userSpaceOnUse">
<stop stop-color="#A4C1FF"/>
<stop offset="1" stop-color="#0E78F9"/>
</linearGradient>
<linearGradient id="paint1_linear_4009_26" x1="108.076" y1="88.6523" x2="108.076" y2="166.099" gradientUnits="userSpaceOnUse">
<stop stop-color="white"/>
<stop offset="1" stop-color="#C5D4F7"/>
</linearGradient>
<linearGradient id="paint2_linear_4009_26" x1="108.076" y1="88.6523" x2="108.076" y2="166.099" gradientUnits="userSpaceOnUse">
<stop stop-color="white"/>
<stop offset="1" stop-color="#637ACA"/>
</linearGradient>
<linearGradient id="paint3_linear_4009_26" x1="180.417" y1="89.3994" x2="180.417" y2="165.541" gradientUnits="userSpaceOnUse">
<stop stop-color="white"/>
<stop offset="1" stop-color="#C5D4F7"/>
</linearGradient>
<linearGradient id="paint4_linear_4009_26" x1="180.417" y1="89.3994" x2="180.417" y2="165.541" gradientUnits="userSpaceOnUse">
<stop stop-color="white"/>
<stop offset="1" stop-color="#637ACA"/>
</linearGradient>
</defs>
</svg>
